<svg xmlns="http://www.w3.org/2000/svg" width="135.115" height="206" viewBox="0 0 135.115 206"><defs><style>.a{fill:#710ae2;}</style></defs><path class="a" d="M656.2,448.308a62.777,62.777,0,0,0-5.381-23.626,67.061,67.061,0,0,0-18.735-26.018c-7.3-8.329-13.927-16.17-12.7-21.393,3.478-14.8,16.679-1.069,29.88-11.081,4.194-3.18,6.246-6.512,4.784-8.5a42.788,42.788,0,0,1-4.341-9.924c-1.391-4.346,3.1-7.443-3.764-16.479-2.539-3.342-6.514-7.684-6.514-7.684s.415-1.314,1.129-3.031c-.058-.015-.117-.025-.175-.04a29.114,29.114,0,0,1,2.486-4.763c2.222-3.317,3.406-4.837,3.4-4.84-46.628-.021-89,42.414-96.1,87-3.784,23.773.734,51.8,14.142,73.04a96.289,96.289,0,0,0,33.044,30.449,52.194,52.194,0,0,1-61.6-51.4,51.971,51.971,0,0,1,4.028-20.16,7.327,7.327,0,1,0-13.52-5.652,66.953,66.953,0,0,0,77.352,90.887V491.96l0-.077,0-.051v-.175h-.008a28.964,28.964,0,0,0-8.721-20.339c-3.144-3.052-7.138-4.97-10.553-7.669a34.142,34.142,0,0,1-8.088-9.552,38.27,38.27,0,0,1-3.926-9.349c-.222-.823-1.834-10.057-1.33-10.057h74.846c.5,0-1.108,9.234-1.333,10.057a38.253,38.253,0,0,1-3.926,9.349,34.137,34.137,0,0,1-8.086,9.552c-3.417,2.7-7.411,4.618-10.555,7.669a28.954,28.954,0,0,0-8.719,20.339h-.009v.175l0,.051,0,.077v20.016a7.507,7.507,0,0,0,1.095-.594,67.139,67.139,0,0,0,27.658-21.33A62.625,62.625,0,0,0,656.2,448.308Z" transform="translate(-521.11 -310.926)"/><path class="a" d="M591.374,378.712l-15.427,10.061-15.429,10.061a18.419,18.419,0,1,0,30.856-20.122Z" transform="translate(-486.242 -250.949)"/></svg>