<svg xmlns="http://www.w3.org/2000/svg" width="22.842" height="22.952" viewBox="0 0 22.842 22.952"><defs><style>.a,.b{fill:#1e1a34;}.a{fill-rule:evenodd;}</style></defs><g transform="translate(-20 -5581.34)"><path class="a" d="M23.625,6.825a11.376,11.376,0,0,0-17.9,13.723L4.112,26.441l6.029-1.582a11.363,11.363,0,0,0,5.435,1.384h0A11.378,11.378,0,0,0,23.625,6.825Zm-8.045,17.5h0a9.439,9.439,0,0,1-4.811-1.318l-.345-.2-3.578.938L7.8,20.251l-.225-.358a9.453,9.453,0,1,1,8.008,4.43Z" transform="translate(15.889 5577.851)"/><g transform="translate(24.758 5589.668)"><rect class="b" width="13.087" height="2.379" rx="1.19" transform="translate(0)"/><rect class="b" width="7.138" height="2.379" rx="1.19" transform="translate(0 4.759)"/></g></g></svg>