<svg xmlns="http://www.w3.org/2000/svg" width="20" height="17.842" viewBox="0 0 20 17.842"><defs><style>.a{fill:none;stroke-linecap:round;}.b,.c{stroke:none;}.c{fill:#2f0459;}</style></defs><g class="a" transform="translate(-37 -59.628)"><path class="b" d="M52,59.628a5,5,0,0,1,5,5c0,5-5,7.845-10,12.843-5-5-10-7.845-10-12.843a5,5,0,0,1,5-5c2.5,0,3.749,1.25,5,3.749C48.247,60.878,49.5,59.628,52,59.628Z"/><path class="c" d="M 51.99542999267578 60.92799377441406 C 50.21707153320312 60.92799377441406 49.32096099853516 61.635986328125 48.16006088256836 63.95820617675781 L 46.99747085571289 66.28378295898438 L 45.83454895019531 63.95836639404297 C 44.67317962646484 61.63605499267578 43.77693939208984 60.92803955078125 41.99863052368164 60.92803955078125 C 39.95920181274414 60.92803955078125 38.29999923706055 62.58723449707031 38.29999923706055 64.62667846679688 C 38.29999923706055 66.07716369628906 38.79283905029297 67.36600494384766 39.89799118041992 68.80564880371094 C 40.97900009155273 70.21383666992188 42.49917984008789 71.57345581054688 44.2594108581543 73.14776611328125 C 45.15081405639648 73.94502258300781 46.06498336791992 74.76263427734375 46.99725341796875 75.65306091308594 C 47.93157196044922 74.76071929931641 48.84800338745117 73.94142150878906 49.74148941040039 73.14263916015625 C 51.50131988525391 71.56932830810547 53.02116012573242 70.21057891845703 54.10211181640625 68.80307006835938 C 55.20719146728516 67.3641357421875 55.70000076293945 66.07607269287109 55.70000076293945 64.62662506103516 C 55.70000076293945 62.58719635009766 54.03813934326172 60.92799377441406 51.99542999267578 60.92799377441406 M 51.99542999267578 59.62799835205078 C 54.7607307434082 59.62799835205078 57 61.86681365966797 57 64.62662506103516 C 57 69.62526702880859 51.99542999267578 72.47138977050781 46.99726104736328 77.47004699707031 C 41.99863052368164 72.47138977050781 37 69.62526702880859 37 64.62667846679688 C 37 61.86686706542969 39.2392692565918 59.62803649902344 41.99863052368164 59.62803649902344 C 44.49771118164062 59.62803649902344 45.74748992919922 60.87782287597656 46.99726104736328 63.37690734863281 C 48.24657821655273 60.87782287597656 49.4963493347168 59.62799835205078 51.99542999267578 59.62799835205078 Z"/></g></svg>