<svg xmlns="http://www.w3.org/2000/svg" width="26.731" height="23.847" viewBox="0 0 26.731 23.847"><defs><style>.a{fill:none;}.b,.c{stroke:none;}.c{fill:#fff;}</style></defs><g class="a" transform="translate(-37 -59.628)"><path class="b" d="M57.042,59.628a6.684,6.684,0,0,1,6.689,6.681c0,6.681-6.689,10.485-13.369,17.166C43.681,76.794,37,72.99,37,66.309a6.683,6.683,0,0,1,6.681-6.681c3.34,0,5.01,1.67,6.681,5.011C52.031,61.3,53.7,59.628,57.042,59.628Z"/><path class="c" d="M 57.04198455810547 61.12799835205078 C 54.5829963684082 61.12799835205078 53.28577423095703 62.14401245117188 51.70342636108398 65.30928039550781 L 50.36198425292969 67.99266052246094 L 49.02014541625977 65.30947875976562 C 47.43716430664062 62.14411163330078 46.13977432250977 61.12805938720703 43.68086624145508 61.12805938720703 C 40.82412338256836 61.12805938720703 38.49999618530273 63.45218658447266 38.49999618530273 66.30892944335938 C 38.49999618530273 68.27639007568359 39.19425582885742 70.09712982177734 40.68488311767578 72.03890228271484 C 42.14320373535156 73.93860626220703 44.18266296386719 75.76265716552734 46.54415512084961 77.87473297119141 C 47.78622055053711 78.98560333251953 49.06153869628906 80.126220703125 50.36171722412109 81.37498474121094 C 51.66469573974609 80.12356567382812 52.9428596496582 78.98088836669922 54.18778610229492 77.86789703369141 C 56.54874420166016 75.75717926025391 58.58774566650391 73.93428802490234 60.04600524902344 72.03549957275391 C 61.53655624389648 70.09465026855469 62.23078536987305 68.27497100830078 62.23078536987305 66.30886077880859 C 62.23078536987305 63.45211791992188 59.90309524536133 61.12799835205078 57.04198455810547 61.12799835205078 M 57.04198455810547 59.62799835205078 C 60.7379035949707 59.62799835205078 63.73078536987305 62.62026977539062 63.73078536987305 66.30886077880859 C 63.73078536987305 72.98973846435547 57.04198455810547 76.79369354248047 50.36173629760742 83.47459411621094 C 43.68086624145508 76.79369354248047 36.99999618530273 72.98973846435547 36.99999618530273 66.30892944335938 C 36.99999618530273 62.62033843994141 39.99287414550781 59.62805938720703 43.68086624145508 59.62805938720703 C 47.0209846496582 59.62805938720703 48.69136428833008 61.29843139648438 50.36173629760742 64.63855743408203 C 52.031494140625 61.29843139648438 53.70186614990234 59.62799835205078 57.04198455810547 59.62799835205078 Z"/></g></svg>