<svg xmlns="http://www.w3.org/2000/svg" width="25.154" height="25.154" viewBox="0 0 25.154 25.154"><defs><style>.a{fill:none;}.b{fill:#710ae2;}.c,.d{stroke:none;}.d{fill:#710ae2;}</style></defs><g transform="translate(0 16.35) rotate(-45)"><g class="a" transform="translate(0 0)"><path class="c" d="M21.123,12.451H2a2,2,0,0,1-2-2V8.894a2.36,2.36,0,0,0,1.676-.7,2.354,2.354,0,0,0,.7-1.675A2.375,2.375,0,0,0,0,4.15V2A2,2,0,0,1,2,0H21.123a2,2,0,0,1,2,2V4.15a2.372,2.372,0,0,0,0,4.744v1.557A2,2,0,0,1,21.123,12.451Z"/><path class="d" d="M 21.12300109863281 11.25059986114502 C 21.56401062011719 11.25059986114502 21.92280006408691 10.89181041717529 21.92280006408691 10.4507999420166 L 21.92280006408691 9.886022567749023 C 20.54253768920898 9.391616821289062 19.55220031738281 8.070210456848145 19.55220031738281 6.522300243377686 C 19.55220031738281 4.974458694458008 20.54254531860352 3.652768850326538 21.92280006408691 3.15799617767334 L 21.92280006408691 1.999800324440002 C 21.92280006408691 1.558790326118469 21.56401062011719 1.200000286102295 21.12300109863281 1.200000286102295 L 1.999800443649292 1.200000286102295 C 1.558790445327759 1.200000286102295 1.200000405311584 1.558790326118469 1.200000405311584 1.999800324440002 L 1.200000405311584 3.157337188720703 C 2.580791473388672 3.651522636413574 3.571500301361084 4.973391532897949 3.571500301361084 6.522300243377686 C 3.571500301361084 7.474830150604248 3.199760437011719 8.371150016784668 2.524770498275757 9.046150207519531 C 2.144032955169678 9.426887512207031 1.692524433135986 9.711273193359375 1.200000405311584 9.886955261230469 L 1.200000405311584 10.4507999420166 C 1.200000405311584 10.89181041717529 1.558790445327759 11.25059986114502 1.999800443649292 11.25059986114502 L 21.12300109863281 11.25059986114502 M 21.12300109863281 12.45060062408447 L 1.999800443649292 12.45060062408447 C 0.8971104025840759 12.45060062408447 4.135131916882528e-07 11.55349063873291 4.135131916882528e-07 10.4507999420166 L 4.135131916882528e-07 8.893800735473633 C 0.6329504251480103 8.892849922180176 1.227900385856628 8.645959854125977 1.67624044418335 8.197620391845703 C 2.124590396881104 7.749270439147949 2.371500492095947 7.154300212860107 2.371500492095947 6.522300243377686 C 2.371500492095947 5.214150428771973 1.307650446891785 4.149900436401367 4.135131916882528e-07 4.149900436401367 L 4.135131916882528e-07 1.999800324440002 C 4.135131916882528e-07 0.8971102833747864 0.8971104025840759 3.120422320534999e-07 1.999800443649292 3.120422320534999e-07 L 21.12300109863281 3.120422320534999e-07 C 22.2256908416748 3.120422320534999e-07 23.12280082702637 0.8971102833747864 23.12280082702637 1.999800324440002 L 23.12280082702637 4.149910449981689 C 21.81479072570801 4.150910377502441 20.75220108032227 5.214710235595703 20.75220108032227 6.522300243377686 C 20.75220108032227 7.829430103302002 21.81565093994141 8.893280029296875 23.12280082702637 8.893790245056152 L 23.12280082702637 10.4507999420166 C 23.12280082702637 11.55349063873291 22.2256908416748 12.45060062408447 21.12300109863281 12.45060062408447 Z"/></g><g transform="translate(16.008 1.779)"><circle class="b" cx="0.889" cy="0.889" r="0.889" transform="translate(0)"/><circle class="b" cx="0.889" cy="0.889" r="0.889" transform="translate(0 2.372)"/><circle class="b" cx="0.889" cy="0.889" r="0.889" transform="translate(0 4.743)"/><circle class="b" cx="0.889" cy="0.889" r="0.889" transform="translate(0 7.115)"/></g></g></svg>