<svg xmlns="http://www.w3.org/2000/svg" width="19" height="20" viewBox="0 0 19 20"><defs><style>.a,.c,.d,.g{fill:none;}.a,.c{stroke-linecap:round;}.b{fill:#1e1a34;}.c,.d{stroke:#1e1a34;}.e,.f{stroke:none;}.f{fill:#1e1a34;}</style></defs><g class="a" transform="translate(0 2)"><path class="e" d="M2,0H17a2,2,0,0,1,2,2V16a2,2,0,0,1-2,2H2a2,2,0,0,1-2-2V2A2,2,0,0,1,2,0Z"/><path class="f" d="M 2 1 C 1.448600769042969 1 1 1.448600769042969 1 2 L 1 16 C 1 16.55139923095703 1.448600769042969 17 2 17 L 17 17 C 17.55139923095703 17 18 16.55139923095703 18 16 L 18 2 C 18 1.448600769042969 17.55139923095703 1 17 1 L 2 1 M 2 0 L 17 0 C 18.10457038879395 0 19 0.8954296112060547 19 2 L 19 16 C 19 17.10457038879395 18.10457038879395 18 17 18 L 2 18 C 0.8954296112060547 18 0 17.10457038879395 0 16 L 0 2 C 0 0.8954296112060547 0.8954296112060547 0 2 0 Z"/></g><g transform="translate(4)"><rect class="b" width="2" height="5" rx="1"/><rect class="b" width="2" height="5" rx="1" transform="translate(9)"/></g><path class="c" d="M-.892,0H16.295" transform="translate(1.564 7.5)"/><g class="d" transform="translate(3 10)"><rect class="e" width="3" height="3" rx="1.5"/><rect class="g" x="0.5" y="0.5" width="2" height="2" rx="1"/></g><g class="d" transform="translate(8 10)"><rect class="e" width="3" height="3" rx="1.5"/><rect class="g" x="0.5" y="0.5" width="2" height="2" rx="1"/></g><g class="d" transform="translate(13 10)"><rect class="e" width="3" height="3" rx="1.5"/><rect class="g" x="0.5" y="0.5" width="2" height="2" rx="1"/></g><g class="d" transform="translate(3 14)"><rect class="e" width="3" height="3" rx="1.5"/><rect class="g" x="0.5" y="0.5" width="2" height="2" rx="1"/></g><g class="d" transform="translate(8 14)"><rect class="e" width="3" height="3" rx="1.5"/><rect class="g" x="0.5" y="0.5" width="2" height="2" rx="1"/></g></svg>